# File created by Blade
# Date/Time:  Wed Sep 24 19:25:39 2014
# Frame Rate: 120.000 fps
#------------------------------------------------------
:FULLY-SPECIFIED
:DEGREES
3982
root -16.244326 32.290470 -5.999886 11.847657 45.442279 -5.113009
Spine -10.381419 -3.527074 19.100877
Head -12.258385 -16.043145 3.853938
LeftShoulder -1.483335 10.596848 10.475071
LeftArm 62.888963 42.875037 -40.434752
LeftForeArm 10.454440 -0.000000 44.776973
LeftHand -22.852677 -0.000000 -6.055350
LeftHandThumb1 -26.253704 0.000000 33.147579
RightShoulder -17.474950 13.941276 -35.911578
RightArm -15.580161 35.029475 42.917843
RightForeArm 11.414712 -0.000000 127.420239
RightHand -15.098750 -0.000000 -5.801172
RightHandThumb1 -24.326973 -0.000000 -32.862282
LeftUpLeg -34.121557 8.332608 4.994660
LeftLeg 71.175227 -0.000000 -0.000000
LeftFoot -16.779595 17.033817 -26.703024
LeftToeBase -1.628013 -0.000000 0.000000
RightUpLeg -15.690121 -4.949361 13.068075
RightLeg -0.491054 -0.000000 0.000000
RightFoot -5.884685 -22.122553 -7.531794
RightToeBase -1.120147 -0.000000 0.000000
3983
root -16.229800 32.300705 -6.061183 12.148025 44.828369 -5.028747
Spine -10.315127 -3.126319 18.947445
Head -12.589261 -16.021921 3.819620
LeftShoulder -1.696369 10.894523 10.317849
LeftArm 62.575942 43.195652 -40.368472
LeftForeArm 10.269070 -0.000000 44.174425
LeftHand -22.924563 -0.000000 -6.131221
LeftHandThumb1 -26.253704 0.000000 33.147579
RightShoulder -17.399394 14.038482 -35.934479
RightArm -15.481038 34.941291 43.047506
RightForeArm 11.429129 -0.000000 127.408960
RightHand -15.060519 -0.000000 -5.713522
RightHandThumb1 -24.326973 -0.000000 -32.862282
LeftUpLeg -34.682980 6.534810 5.100741
LeftLeg 70.551590 -0.000000 -0.000000
LeftFoot -17.388795 17.024741 -26.535088
LeftToeBase -1.751897 -0.000000 0.000000
RightUpLeg -15.934992 -4.749028 12.939114
RightLeg -0.489034 -0.000000 0.000000
RightFoot -5.800367 -21.792487 -7.523909
RightToeBase -1.080686 -0.000000 0.000000
3984
root -16.214169 32.309772 -6.120489 12.429567 44.171934 -4.937188
Spine -10.224478 -2.704336 18.775156
Head -12.886791 -15.989844 3.737823
LeftShoulder -1.879224 11.087658 10.151337
LeftArm 62.173354 43.586786 -40.301541
LeftForeArm 10.013147 -0.000000 43.546920
LeftHand -23.017492 -0.000000 -5.975247
LeftHandThumb1 -26.253704 0.000000 33.147579
RightShoulder -17.383831 14.009626 -35.971319
RightArm -15.164409 34.875508 43.387006
RightForeArm 11.337442 -0.000000 127.409455
RightHand -15.098931 -0.000000 -5.729853
RightHandThumb1 -24.326973 -0.000000 -32.862282
LeftUpLeg -35.219491 4.864667 5.239618
LeftLeg 69.925970 -0.000000 -0.000000
LeftFoot -17.909490 16.960542 -26.342399
LeftToeBase -1.988301 -0.000000 0.000000
RightUpLeg -16.170862 -4.532968 12.788571
RightLeg -0.436574 -0.000000 0.000000
RightFoot -5.759015 -21.371137 -7.542804
RightToeBase -1.369853 -0.000000 0.000000
3985
root -16.201809 32.320221 -6.174965 12.685945 43.445709 -4.896699
Spine -10.130805 -2.215332 18.583751
Head -13.180045 -15.982938 3.715367
LeftShoulder -2.059557 11.249589 10.013485
LeftArm 61.694923 43.995355 -40.296611
LeftForeArm 9.724897 -0.000000 42.905997
LeftHand -22.827300 -0.000000 -6.752402
LeftHandThumb1 -26.253704 0.000000 33.147579
RightShoulder -17.349765 14.086703 -35.971667
RightArm -15.014531 34.728378 43.583312
RightForeArm 11.232964 -0.000000 127.408403
RightHand -15.196705 -0.000000 -5.851068
RightHandThumb1 -24.326973 -0.000000 -32.862282
LeftUpLeg -35.755559 3.360104 5.445472
LeftLeg 69.275004 -0.000000 -0.000000
LeftFoot -18.237818 16.512283 -26.472505
LeftToeBase -3.023430 -0.000000 0.000000
RightUpLeg -16.268546 -3.884513 12.573305
RightLeg -0.676358 -0.000000 0.000000
RightFoot -5.411502 -21.386527 -7.703725
RightToeBase -1.293461 -0.000000 0.000000
